<svg width="39" height="27" viewBox="0 0 39 27" fill="none" xmlns="http://www.w3.org/2000/svg">
<path d="M38.4397 7.41348C38.2136 7.15395 37.9305 6.94521 37.6105 6.80209C37.2905 6.65896 36.9415 6.58497 36.5882 6.58537H7.41116L6.51564 1.89148C6.41458 1.36056 6.12173 0.880392 5.68817 0.53472C5.25461 0.189047 4.70786 -0.000193794 4.14326 1.48923e-07H1.03349C0.759392 1.48923e-07 0.49652 0.104072 0.302702 0.289321C0.108885 0.474571 0 0.725823 0 0.987805C0 1.24979 0.108885 1.50104 0.302702 1.68629C0.49652 1.87154 0.759392 1.97561 1.03349 1.97561H4.14326C4.22392 1.97559 4.30202 2.00262 4.36397 2.05199C4.42591 2.10136 4.46777 2.16994 4.48225 2.24577L5.51643 7.66701C5.52206 7.72365 5.53278 7.77972 5.54847 7.83461L8.84427 25.1084C8.94529 25.6393 9.2381 26.1195 9.67163 26.4652C10.1052 26.8109 10.6519 27.0001 11.2165 27H33.5835C34.1483 27.0002 34.6953 26.8108 35.1289 26.4649C35.5625 26.1189 35.8553 25.6384 35.956 25.1072L38.9607 9.30232C39.0243 8.9702 39.0106 8.62877 38.9205 8.3023C38.8305 7.97582 38.6663 7.67246 38.4397 7.41348ZM36.9271 8.94902L33.9223 24.7539C33.9079 24.8298 33.8661 24.8984 33.8042 24.9478C33.7422 24.9973 33.6641 25.0244 33.5835 25.0244H11.2165C11.1358 25.0244 11.0577 24.9974 10.9958 24.948C10.9338 24.8986 10.892 24.8301 10.8775 24.7542L7.78821 8.56098H36.5882C36.6386 8.56094 36.6885 8.57151 36.7342 8.59193C36.7799 8.61236 36.8204 8.64213 36.8527 8.67915C36.885 8.71617 36.9085 8.75953 36.9213 8.80617C36.9342 8.8528 36.9362 8.90157 36.9271 8.94902Z" fill="black"/>
</svg>
