<svg viewBox="0 0 37 37" fill="none" xmlns="http://www.w3.org/2000/svg">
  <path d="M22.6598 25.1935L25.2052 22.649L36.0234 33.4672L33.4779 36.0117L22.6598 25.1935Z" fill="#616161" />
  <path d="M14.4014 28.8029C22.3551 28.8029 28.8029 22.3551 28.8029 14.4014C28.8029 6.44774 22.3551 0 14.4014 0C6.44774 0 0 6.44774 0 14.4014C0 22.3551 6.44774 28.8029 14.4014 28.8029Z" fill="#616161" />
  <path d="M26 28.454L28.4534 26L36 33.546L33.5458 36L26 28.454Z" fill="#37474F" />
  <path d="M14.5 26C20.8513 26 26 20.8513 26 14.5C26 8.14873 20.8513 3 14.5 3C8.14873 3 3 8.14873 3 14.5C3 20.8513 8.14873 26 14.5 26Z" fill="white" />
  <path d="M20.8052 9.26531C19.2563 7.22449 16.9786 6 14.5186 6C12.0586 6 9.78087 7.22449 8.232 9.26531C7.86756 9.67347 7.95867 10.3878 8.32311 10.6939C8.68755 11.102 9.32532 11 9.59865 10.5918C10.8742 8.95918 12.6053 8.04082 14.5186 8.04082C16.4319 8.04082 18.163 8.95918 19.4385 10.5918C19.6207 10.7959 19.8941 11 20.1674 11C20.3496 11 20.6229 10.898 20.7141 10.7959C21.0785 10.3878 21.0785 9.67347 20.8052 9.26531V9.26531Z" fill="#BBDEFB" />
</svg>